<svg style="position: absolute; left: -9999px; top: -9999px;" id="svg_sprite_1693294965188" xmlns="http://www.w3.org/2000/svg" xmlns:xlink="http://www.w3.org/1999/xlink"><defs><symbol viewBox="0 0 50 50" id="close"><path d="M7.719 6.281 6.28 7.72 23.563 25 6.28 42.281 7.72 43.72 25 26.437 42.281 43.72l1.438-1.438L26.437 25 43.72 7.719 42.28 6.28 25 23.563Z" /></symbol><symbol fill="none" viewBox="0 0 24 24" id="inst"><path fill="#000" fill-rule="evenodd" d="M2 6a4 4 0 0 1 4-4h12a4 4 0 0 1 4 4v12a4 4 0 0 1-4 4H6a4 4 0 0 1-4-4V6Zm4-2a2 2 0 0 0-2 2v12a2 2 0 0 0 2 2h12a2 2 0 0 0 2-2V6a2 2 0 0 0-2-2H6Zm6 5a3 3 0 1 0 0 6 3 3 0 0 0 0-6Zm-5 3a5 5 0 1 1 10 0 5 5 0 0 1-10 0Zm10.5-4a1.5 1.5 0 1 0 0-3 1.5 1.5 0 0 0 0 3Z" clip-rule="evenodd" /></symbol><symbol fill="none" viewBox="0 0 24 24" id="mail"><path stroke="#000" stroke-linecap="round" stroke-linejoin="round" stroke-width="2" d="m21 8-3.56 1.978c-1.986 1.103-2.979 1.655-4.03 1.87-.93.192-1.89.192-2.82 0-1.051-.215-2.044-.767-4.03-1.87L3 8m3.2 11h11.6c1.12 0 1.68 0 2.108-.218a2 2 0 0 0 .874-.874C21 17.48 21 16.92 21 15.8V8.2c0-1.12 0-1.68-.218-2.108a2 2 0 0 0-.874-.874C19.48 5 18.92 5 17.8 5H6.2c-1.12 0-1.68 0-2.108.218a2 2 0 0 0-.874.874C3 6.52 3 7.08 3 8.2v7.6c0 1.12 0 1.68.218 2.108a2 2 0 0 0 .874.874C4.52 19 5.08 19 6.2 19Z" /></symbol><symbol fill="none" viewBox="0 0 24 24" id="phone"><path stroke="#000" stroke-linecap="round" stroke-linejoin="round" stroke-width="2" d="M3 5.5C3 14.06 9.94 21 18.5 21c.386 0 .77-.014 1.148-.042.435-.032.653-.048.851-.162a1.06 1.06 0 0 0 .402-.432c.099-.206.099-.446.099-.926v-2.817c0-.404 0-.606-.067-.779a.999.999 0 0 0-.277-.396c-.14-.122-.33-.191-.71-.329l-3.206-1.166c-.441-.16-.662-.24-.872-.227a1 1 0 0 0-.513.182c-.171.121-.292.322-.534.725L14 16a12.1 12.1 0 0 1-6-6l1.369-.821c.402-.242.604-.363.725-.534a1 1 0 0 0 .182-.513c.014-.21-.066-.43-.227-.872L8.883 4.053c-.138-.38-.207-.569-.329-.709a1 1 0 0 0-.396-.278C7.985 3 7.783 3 7.379 3H4.562c-.48 0-.72 0-.926.1a1.06 1.06 0 0 0-.432.401c-.114.198-.13.416-.162.85C3.014 4.732 3 5.115 3 5.5Z" /></symbol></defs></svg>